<svg xmlns="http://www.w3.org/2000/svg" width="4167" height="4167" viewBox="0 0 4167 4167" version="1.1"><path d="M 1253.635 1989.878 C 1247.699 2003.105, 1246.977 2008.198, 1242.982 2065 C 1232.377 2215.786, 1243.347 2324.554, 1279.908 2431.119 C 1343.749 2617.202, 1481.014 2732.583, 1690.068 2775.888 C 1759.661 2790.304, 1821.636 2795.985, 1969.500 2801.502 C 2122.881 2807.225, 2184.090 2812.185, 2253.500 2824.513 C 2372.270 2845.607, 2466.635 2887.212, 2553.153 2956.627 C 2589.961 2986.159, 2632.111 3029.030, 2665.283 3070.676 C 2689.146 3100.635, 2724.720 3152.700, 2734.460 3171.922 C 2735.950 3174.861, 2739.268 3179.511, 2741.834 3182.256 C 2746.345 3187.079, 2754.755 3193.578, 2755.510 3192.824 C 2756.487 3191.847, 2733.698 3081.211, 2723.460 3037.230 C 2687.088 2880.976, 2641.072 2771.139, 2574.680 2682.101 C 2531.109 2623.668, 2474.478 2571.032, 2413.250 2532.059 C 2408.713 2529.171, 2405 2526.455, 2405 2526.024 C 2405 2525.594, 2409.162 2521.930, 2414.250 2517.884 C 2419.338 2513.838, 2428.900 2505.117, 2435.500 2498.504 C 2455.371 2478.597, 2467.691 2461.525, 2479.528 2437.500 C 2495.238 2405.613, 2502 2375.824, 2502 2338.500 C 2502 2318.220, 2500.207 2302.508, 2495.894 2285 C 2479.201 2217.240, 2426.452 2157.724, 2360.520 2132.261 C 2286.857 2103.813, 2207.055 2115.407, 2142.540 2163.933 C 2130.680 2172.853, 2111.230 2191.444, 2102.713 2202 C 2065.826 2247.720, 2052.268 2304.239, 2062.995 2367.582 C 2068.662 2401.048, 2079.854 2433.762, 2098.112 2470.224 C 2102.516 2479.019, 2105.959 2486.374, 2105.764 2486.570 C 2105.167 2487.166, 1984.316 2485.097, 1955 2483.988 C 1718.622 2475.050, 1581.044 2437.976, 1470.500 2353.427 C 1383.720 2287.054, 1321.267 2192.808, 1282.682 2070 C 1279.658 2060.375, 1272.834 2037.425, 1267.516 2019 C 1262.199 2000.575, 1257.503 1985.143, 1257.080 1984.706 C 1256.658 1984.270, 1255.108 1986.597, 1253.635 1989.878" stroke="none" fill="#dddddd" fill-rule="evenodd"/><path d="M 1326.172 1041.750 C 1310.057 1102.768, 1299.482 1216.745, 1302.907 1292.500 C 1311.393 1480.237, 1371.876 1622.001, 1483 1714.618 C 1543.114 1764.721, 1621.372 1802.043, 1712.360 1824.004 C 1780.487 1840.447, 1873.275 1851.381, 1963.500 1853.597 C 1987.286 1854.182, 1987.540 1854.166, 1991.973 1851.843 C 1998.249 1848.555, 2000.479 1843.594, 2002.914 1827.500 C 2012.618 1763.372, 2039.840 1708.313, 2083.500 1664.510 C 2127.072 1620.795, 2181.871 1593.803, 2244.163 1585.374 C 2260.802 1583.122, 2293.198 1583.122, 2309.837 1585.374 C 2407.257 1598.557, 2487.578 1654.765, 2529.430 1739.045 C 2559.659 1799.917, 2566.472 1865.905, 2549.485 1933.269 C 2544.875 1951.549, 2544.375 1956.339, 2546.362 1963.174 C 2548.474 1970.437, 2553.643 1976.169, 2565.222 1984.088 C 2615.742 2018.640, 2662.311 2062.230, 2706.146 2116 C 2726.601 2141.090, 2756.937 2184.219, 2776.901 2216.590 C 2783.959 2228.035, 2792.927 2240.142, 2794.811 2240.770 C 2796.188 2241.229, 2796.124 2239.970, 2793.394 2213 C 2788.666 2166.304, 2778.205 2111.990, 2762.992 2055.151 C 2725.328 1914.431, 2679.027 1811.418, 2614.800 1725.445 C 2583.246 1683.208, 2546.173 1646.192, 2508.486 1619.295 C 2458.582 1583.679, 2397.898 1560.050, 2333.628 1551.206 L 2320.757 1549.435 2330.128 1541.969 C 2335.283 1537.863, 2344.846 1529.327, 2351.380 1523.002 C 2390.826 1484.812, 2413.009 1443.192, 2420.670 1393 C 2423.140 1376.815, 2423.145 1340.893, 2420.679 1325 C 2413.329 1277.627, 2394.743 1240.376, 2361.221 1205.831 C 2340.835 1184.823, 2322.049 1171.013, 2297.500 1158.989 C 2275.853 1148.386, 2255.920 1142.175, 2231.500 1138.422 C 2216.379 1136.099, 2185.473 1136.049, 2169.942 1138.324 C 2119.915 1145.650, 2076.147 1167.586, 2041 1202.949 C 2008.648 1235.499, 1987.945 1272.645, 1979.944 1312.500 C 1977.188 1326.227, 1976.150 1357.051, 1977.947 1371.784 C 1984 1421.405, 2008.454 1474.011, 2049.337 1525.357 C 2053.654 1530.778, 2056.807 1535.569, 2056.343 1536.003 C 2055.879 1536.437, 2042.675 1537.291, 2027 1537.900 C 1862.633 1544.284, 1745.199 1525.724, 1648.500 1478.080 C 1552.077 1430.572, 1478.022 1355.380, 1415.540 1241.544 C 1386.739 1189.071, 1358.505 1122.374, 1335.756 1053.069 C 1332.315 1042.587, 1329.212 1034.009, 1328.860 1034.006 C 1328.507 1034.003, 1327.298 1037.487, 1326.172 1041.750" stroke="none" fill="#ec6ca7" fill-rule="evenodd"/><path d="M 1306.153 1510.183 C 1286.087 1573.769, 1275.348 1707.030, 1282.549 1803.068 C 1292.704 1938.492, 1336.749 2056.022, 1409.003 2140.500 C 1498.475 2245.107, 1638.892 2305.837, 1832 2323.443 C 1875.157 2327.378, 1978.917 2333.435, 1985.712 2332.416 C 1996.509 2330.797, 1999.869 2325.145, 2003.497 2302.500 C 2012.749 2244.752, 2031.292 2200.267, 2062.015 2162.113 C 2077.648 2142.700, 2103.442 2120.022, 2125.500 2106.298 C 2165.963 2081.123, 2216.310 2064.271, 2264 2059.939 C 2286.548 2057.890, 2316.489 2059.754, 2338.105 2064.551 C 2388.648 2075.768, 2435.478 2102.555, 2477.003 2144 C 2501.348 2168.299, 2518.566 2192.007, 2532.561 2220.500 C 2545.238 2246.310, 2552.680 2270.896, 2556.624 2300 C 2558.663 2315.046, 2558.903 2348.444, 2557.084 2364 C 2554.336 2387.505, 2548.539 2414.360, 2541.951 2434.109 C 2538.007 2445.932, 2538.130 2452.860, 2542.383 2458.435 C 2543.906 2460.432, 2551.305 2466.625, 2558.826 2472.196 C 2634.224 2528.054, 2699.232 2601.718, 2755.451 2695 C 2767.679 2715.290, 2771.402 2720, 2775.212 2720 C 2777.334 2720, 2778 2719.522, 2778 2717.998 C 2778 2714.667, 2770.401 2668.132, 2765.509 2641.500 C 2734.397 2472.144, 2684.959 2339.399, 2611.512 2228 C 2567.745 2161.618, 2516.256 2111.135, 2456.500 2076.016 C 2447.042 2070.457, 2415.542 2054.585, 2408.204 2051.680 L 2403.907 2049.979 2411.704 2043.765 C 2423.307 2034.516, 2443.137 2014.841, 2452.288 2003.500 C 2480.330 1968.745, 2496.271 1930.836, 2500.945 1887.789 C 2502.471 1873.741, 2502.240 1846.959, 2500.475 1833.301 C 2494.194 1784.688, 2472.438 1741.370, 2436.027 1704.980 C 2404.237 1673.207, 2365.661 1652.838, 2321.322 1644.411 C 2302.461 1640.826, 2271.751 1639.949, 2252.211 1642.436 C 2163.513 1653.725, 2086.696 1717.994, 2065.677 1798.500 C 2057.705 1829.035, 2056.992 1862.120, 2063.574 1896.103 C 2070.840 1933.621, 2087.342 1974.593, 2110.606 2012.879 L 2113.267 2017.257 2026.883 2016.701 C 1979.373 2016.395, 1930.375 2015.664, 1918 2015.076 C 1834.033 2011.088, 1781.685 2004.636, 1730.057 1991.911 C 1600.614 1960.008, 1497.218 1883.775, 1421.563 1764.462 C 1382.580 1702.983, 1350.889 1632.948, 1316.437 1532.139 C 1311.858 1518.741, 1307.907 1507.573, 1307.656 1507.322 C 1307.405 1507.071, 1306.728 1508.359, 1306.153 1510.183" stroke="none" fill="#64a4d4" fill-rule="evenodd"/><path d="M 2106 267.676 C 2070.152 268.449, 1996.618 272.739, 1962.500 276.048 C 1932.889 278.919, 1869.763 287.029, 1865.938 288.454 C 1865.147 288.748, 1855.502 290.581, 1844.505 292.526 C 1611.737 333.698, 1324.289 471.271, 1065.500 665.358 C 909.125 782.637, 768.671 917.731, 667.910 1047.774 C 644.197 1078.379, 646.348 1076, 642.391 1076 C 636.717 1076, 624.109 1078.939, 614.758 1082.441 C 594.460 1090.044, 579.690 1102.384, 566.222 1122.994 C 470.952 1268.779, 398.500 1405.021, 344.994 1539 C 299.085 1653.958, 269.006 1745.887, 248.961 1832.500 C 199.207 2047.489, 193.797 2263.551, 233.150 2464 C 252.983 2565.019, 279.485 2653.473, 324.231 2768 C 351.250 2837.154, 361.665 2860.121, 387.944 2908.500 C 422.654 2972.399, 440.452 3002.636, 466.816 3042.500 C 475.910 3056.250, 491.324 3080.379, 501.070 3096.120 C 535.463 3151.668, 542.497 3161.346, 579.477 3204 C 588.299 3214.175, 607.706 3237.125, 622.605 3255 C 668.410 3309.955, 686.015 3329.194, 737.924 3381.027 C 795.026 3438.045, 838.369 3475.123, 928 3543.630 C 967.491 3573.814, 980.535 3582.660, 1032.500 3614.494 C 1044.050 3621.569, 1062.233 3632.941, 1072.907 3639.765 C 1098.171 3655.915, 1108.308 3661.615, 1148.819 3682.453 C 1167.344 3691.981, 1188.800 3703.200, 1196.500 3707.385 C 1215.575 3717.750, 1238.728 3728.093, 1283.051 3746.050 C 1331.195 3765.554, 1342.999 3769.914, 1392 3786.289 C 1414.275 3793.732, 1439.470 3802.357, 1447.989 3805.455 C 1465.186 3811.707, 1475.013 3814.353, 1498.189 3818.969 C 1506.818 3820.687, 1521.323 3824.304, 1530.423 3827.007 C 1552.135 3833.454, 1571.199 3837.641, 1612.500 3845.036 C 1655.494 3852.733, 1671.602 3856.059, 1691 3861.246 L 1706.500 3865.391 1729 3865.546 C 1744.525 3865.654, 1752.430 3866.093, 1754.500 3866.962 C 1756.337 3867.734, 1763.316 3868.331, 1772.500 3868.503 C 1782.563 3868.690, 1790.791 3869.447, 1797.500 3870.801 C 1809.278 3873.178, 1823.179 3874.759, 1842.500 3875.919 C 1850.200 3876.381, 1869.100 3878.597, 1884.500 3880.842 C 1972.091 3893.613, 2048.278 3898.994, 2141.500 3898.994 C 2203.306 3898.994, 2250.420 3896.967, 2305.500 3891.939 C 2742.759 3852.026, 3143.430 3660.916, 3447.090 3347.429 C 3729.627 3055.749, 3906.668 2678.492, 3949.427 2277 C 3960.223 2175.631, 3962.444 2061.003, 3955.511 1963 C 3945.216 1817.449, 3919.591 1679.701, 3877.473 1543.500 C 3732.706 1075.343, 3401.422 684.382, 2960.831 461.730 C 2695.725 327.760, 2402.837 261.271, 2106 267.676 M 1951.500 378.075 C 1874.351 381.371, 1788.102 391.200, 1727.596 403.592 C 1393.223 472.075, 930.129 762.646, 670.807 1066.681 L 663.114 1075.700 670.250 1076.975 C 691.534 1080.779, 711.838 1092.291, 728 1109.720 C 737.554 1120.022, 744.318 1131.246, 748.801 1144.238 C 752.047 1153.641, 752.381 1155.680, 752.793 1168.598 C 753.694 1196.859, 747.359 1213.963, 715.052 1270.494 C 640.818 1400.385, 589.619 1525.864, 556.507 1659.053 C 514.848 1826.623, 503.977 1995.001, 524.036 2162 C 531.577 2224.788, 543.058 2285.916, 558.593 2346 C 565.925 2374.359, 574.949 2404.874, 578.700 2413.995 C 582.508 2423.257, 590.342 2435.843, 596.829 2443.125 C 607.192 2454.756, 625.023 2465.292, 641.732 2469.658 C 654.055 2472.878, 673.861 2473.279, 686.422 2470.562 C 698.236 2468.006, 712.373 2462.641, 721.441 2457.272 C 731.808 2451.133, 746.204 2437.007, 751.840 2427.443 C 766.012 2403.394, 768.348 2377.574, 760.159 2335.500 C 745.778 2261.605, 737.432 2196.677, 733.905 2131.253 C 732.372 2102.811, 733.262 2027.711, 735.426 2003 C 743.147 1914.830, 759.478 1849.869, 788.437 1792.125 C 809.036 1751.052, 840.244 1708.354, 861.366 1692.346 C 869.627 1686.086, 885.614 1678.547, 896 1676.015 C 917.972 1670.657, 944.532 1673.179, 964.810 1682.548 C 988.074 1693.297, 1007.198 1716.293, 1014.872 1742.747 C 1018.467 1755.138, 1018.958 1759.282, 1021.475 1798.500 C 1029.207 1918.971, 1038.906 2022.343, 1052.576 2130 C 1056.655 2162.122, 1057.340 2166.391, 1059.115 2170.750 C 1060.075 2173.106, 1060.161 2174.756, 1059.429 2176.750 C 1057.899 2180.920, 1086.138 2339.009, 1098.568 2395.855 C 1110.446 2450.176, 1122.315 2495.340, 1139.469 2551.500 C 1170.092 2651.751, 1187.970 2739.951, 1197.037 2835.500 C 1199.449 2860.919, 1200.880 2911.653, 1200.952 2974.289 C 1201.001 3017.301, 1200.280 3029.675, 1196.968 3042.624 C 1195.694 3047.607, 1194.921 3054.903, 1194.620 3064.777 C 1194.178 3079.311, 1192.820 3090.471, 1188.996 3111 C 1187.921 3116.775, 1185.917 3129.825, 1184.543 3140 C 1181.397 3163.304, 1176.651 3187.818, 1168.376 3223.500 C 1159.901 3260.040, 1159.003 3265.337, 1159.001 3278.792 C 1158.998 3304.405, 1167.507 3325.378, 1185.391 3343.838 C 1194.350 3353.085, 1201.441 3358.332, 1221.500 3370.555 C 1365.530 3458.325, 1513.861 3520.171, 1673.500 3559.016 C 1725.492 3571.667, 1762.755 3578.934, 1793.500 3582.420 C 1927.326 3597.593, 2065.853 3595.558, 2201 3576.435 C 2490.354 3535.491, 2759.186 3419.365, 2986 3237.345 C 3139.994 3113.763, 3270.836 2961.974, 3370.836 2790.901 C 3397.353 2745.537, 3431.145 2679.768, 3451.261 2634.373 C 3530.138 2456.373, 3575.239 2274.147, 3587.974 2082 C 3592.089 2019.905, 3592.086 1936.682, 3587.965 1875 C 3571.004 1621.084, 3497.914 1376.238, 3374.977 1161.500 C 3318.508 1062.866, 3253.767 973.545, 3176.045 887.040 C 3153.835 862.319, 3095.177 803.368, 3071.183 781.652 C 2988.618 706.929, 2901.817 643.084, 2809 588.809 C 2627.257 482.534, 2425.048 414.471, 2214 388.534 C 2173.915 383.608, 2128.847 379.936, 2085.014 378.024 C 2058.618 376.873, 1978.926 376.903, 1951.500 378.075" stroke="none" fill="#e9c091" fill-rule="evenodd"/></svg>